# AST/ASF file generated using VICON BodyLanguage
# -----------------------------------------------
:version 1.10
:name VICON
:units
  mass 1.0
  length 0.45
  angle deg
:documentation
   .ast/.asf automatically generated from VICON data using
   VICON BodyBuilder and BodyLanguage model FoxedUp or BRILLIANT.MOD
:root
   order TX TY TZ RX RY RZ
   axis XYZ
   position 0 0 0  
   orientation 0 0 0 
:bonedata
  begin
     id 1 
     name lhipjoint
     direction 0.606768 -0.715223 0.346827 
     length 2.41543 
     axis 0 0 0  XYZ
  end
  begin
     id 2 
     name lfemur
     direction 0.34202 -0.939693 0  
     length 7.2778  
     axis 0 0 20  XYZ
    dof rx ry rz
    limits (-160.0 20.0)
           (-70.0 70.0)
           (-60.0 70.0)
  end
  begin
     id 3 
     name ltibia
     direction 0.34202 -0.939693 0   
     length 7.61811   
     axis 0 0 20   XYZ
    dof rx
    limits (-10.0 170.0)
  end
  begin
     id 4 
     name lfoot
     direction 0.0823924 -0.226371 0.97055   
     length 2.33618   
     axis -90 7.62852e-016 20   XYZ
    dof rx rz
    limits (-45.0 90.0)
           (-70.0 20.0)
  end
  begin
     id 5 
     name ltoes
     direction 1.53554e-011 -4.21934e-011 1   
     length 1.17015   
     axis -90 7.62852e-016 20   XYZ
    dof rx
    limits (-90.0 20.0)
  end
  begin
     id 6 
     name rhipjoint
     direction -0.6077 -0.714582 0.346516   
     length 2.4176  
     axis 0 0 0  XYZ 
  end
  begin
     id 7 
     name rfemur
     direction -0.34202 -0.939693 0   
     length 7.28127   
     axis 0 0 -20   XYZ
    dof rx ry rz
    limits (-160.0 20.0)
           (-70.0 70.0)
           (-70.0 60.0)
  end
  begin
     id 8 
     name rtibia
     direction -0.34202 -0.939693 0   
     length 7.77648   
     axis 0 0 -20   XYZ
    dof rx
    limits (-10.0 170.0)
 end
 begin
     id 9 
     name rfoot
     direction -0.0809463 -0.222398 0.97159   
     length 2.37533  
     axis -90 -7.62852e-016 -20   XYZ
    dof rx rz
    limits (-45.0 90.0)
           (-20.0 70.0)
  end
  begin
     id 10 
     name rtoes
     direction -1.53568e-011 -4.21714e-011 1   
     length 1.18972   
     axis -90 -7.62852e-016 -20   XYZ
    dof rx
    limits (-90.0 20.0)
  end
  begin
     id 11 
     name lowerback
     direction 0.010968 0.991932 -0.126297   
     length 2.21698   
     axis 0 0 0   XYZ
    dof rx ry rz
    limits (-20.0 45.0)
           (-30.0 30.0)
           (-30.0 30.0)
  end
  begin
     id 12 
     name upperback
     direction 0.0167007 0.997503 -0.0686276   
     length 2.22371   
     axis 0 0 0   XYZ
    dof rx ry rz
    limits (-20.0 45.0)
           (-30.0 30.0)
           (-30.0 30.0)
  end
  begin
     id 13 
     name thorax
     direction 0.0111721 0.999885 -0.0102878   
     length 2.25242   
     axis 0 0 0   XYZ
    dof rx ry rz
    limits (-20.0 45.0)
           (-30.0 30.0)
           (-30.0 30.0)
  end
  begin
     id 14 
     name lowerneck
     direction -0.0120265 0.990428 0.137508   
     length 1.57674   
     axis 0 0 0   XYZ
    dof rx ry rz
    limits (-20.0 45.0)
           (-30.0 30.0)
           (-30.0 30.0)
  end
  begin
     id 15 
     name upperneck
     direction 0.0175669 0.998907 0.0433089   
     length 1.5618   
     axis 0 0 0   XYZ
    dof rx ry rz
    limits (-20.0 45.0)
           (-30.0 30.0)
           (-30.0 30.0)
  end
  begin
     id 16
     name head
     direction 0.00754609 0.99997 0.00185367  
     length 1.60579  
     axis 0 0 0   XYZ
    dof rx ry rz
    limits (-20.0 45.0)
           (-30.0 30.0)
           (-30.0 30.0)
  end
  begin
     id 17 
     name lclavicle
     direction 0.885866 0.429166 -0.176231  
     length 3.44967  
     axis 0 0 0   XYZ
    dof ry rz
    limits (-20.0 10.0)
           (0.0 20.0)
  end
  begin
     id 18 
     name lhumerus
     direction 1 -4.48973e-011 -1.90255e-027   
     length 5.20607   
     axis 180 -30 -90   XYZ
    dof rx ry rz
    limits (-60.0 90.0)
           (-90.0 90.0)
           (-90.0 90.0)
  end
  begin
     id 19
     name lradius
     direction 1 -4.48956e-011 9.87925e-027   
     length 3.39961   
     axis 180 -30 -90   XYZ
    dof rx
    limits (-10.0 170.0)
  end
  begin
     id 20
     name lwrist
     direction 1 -4.48985e-011 1.73247e-026   
     length 1.6998   
     axis -9.60847e-015 90 90   XYZ
    dof ry
    limits (-180.0 0.0)
 end
  begin
     id 21 
     name lhand
     direction 1 -4.48798e-011 3.46119e-026   
     length 0.519693   
     axis -2.21073e-014 90 90   XYZ
    dof rx rz
    limits (-90.0 90.0)
           (-45.0 45.0)
  end
  begin
     id 22 
     name lfingers
     direction 1 -4.48938e-011 6.92797e-026   
     length 0.41899   
     axis -4.42155e-014 90 90   XYZ
    dof rx
    limits (0.0 90.0)
  end
  begin
     id 23
     name lthumb
     direction 0.707107 -6.34952e-011 0.707107   
     length 0.601588   
     axis -90 45 6.0103e-014   XYZ
    dof rx rz
    limits (-45.0 45.0)
           (-45.0 45.0)
  end
  begin
     id 24 
     name rclavicle
     direction -0.866736 0.456792 -0.200276   
     length 3.45032  
     axis 0 0 0   XYZ 
    dof ry rz
    limits (-10.0 20.0)
           (-20.0 0.0)
  end
  begin
     id 25 
     name rhumerus
     direction -1 -4.4897e-011 8.65094e-028  
     length 5.32214   
     axis 180 30 90   XYZ
    dof rx ry rz
    limits (-90.0 60.0)
           (-90.0 90.0)
           (-90.0 90.0)
  end
  begin
     id 26 
     name rradius
     direction -1 -4.48987e-011 1.08427e-026   
     length 3.51208   
     axis 180 30 90   XYZ
    dof rx
    limits (-10.0 170.0)
  end
  begin
     id 27 
     name rwrist
     direction -1 -4.48961e-011 1.73222e-026   
     length 1.75604   
     axis -9.60847e-015 -90 -90   XYZ
    dof ry
    limits (-180.0 0.0)
  end
  begin
     id 28
     name rhand
     direction -1 -4.48895e-011 3.46314e-026   
     length 0.586681   
     axis -2.21073e-014 -90 -90   XYZ
    dof rx rz
    limits (-90.0 90.0)
           (-45.0 45.0)
  end
  begin
     id 29
     name rfingers
     direction -1 -4.48968e-011 6.92916e-026   
     length 0.472997   
     axis -4.42155e-014 -90 -90   XYZ
    dof rx
    limits (0.0 90.0)
  end
  begin
     id 30
     name rthumb
     direction -0.707107 -6.34848e-011 0.707107   
     length 0.679133   
     axis -90 -45 -6.0103e-014   XYZ
    dof rx rz
    limits (-45.0 45.0)
           (-45.0 45.0)
  end
:hierarchy
  begin
    root lhipjoint rhipjoint lowerback
    lhipjoint lfemur
    lfemur ltibia
    ltibia lfoot
    lfoot ltoes
    rhipjoint rfemur
    rfemur rtibia
    rtibia rfoot
    rfoot rtoes
    lowerback upperback
    upperback thorax
    thorax lowerneck lclavicle rclavicle
    lowerneck upperneck
    upperneck head
    lclavicle lhumerus
    lhumerus lradius
    lradius lwrist
    lwrist lhand lthumb
    lhand lfingers
    rclavicle rhumerus
    rhumerus rradius
    rradius rwrist
    rwrist rhand rthumb
    rhand rfingers
  end

#!OML:ASF H:\Dans Jumps\Project 1\Capture day 1\Session 1\subject.ASF
:FULLY-SPECIFIED
:DEGREES
66
root 0.498112 17.554 -13.7709 5.72577 -1.08967 -1.6599
lowerback -1.46452 -0.343678 0.533127
upperback 3.95006 -0.550065 1.59771
thorax 4.90906 -0.287534 1.32155
lowerneck -16.0948 0.800032 -2.19254
upperneck 26.7972 1.79944 -0.0974488
head 11.3563 0.573662 0.595767
rclavicle -6.55989e-015 -1.72943e-014
rhumerus -18.8075 -10.7521 -84.7111
rradius 24.0952
rwrist 32.4695
rhand -19.4128 -26.2108
rfingers 7.12502
rthumb 6.9067 -56.0781
lclavicle -6.55989e-015 -1.72943e-014
lhumerus -17.5145 -7.5045 91.0239
lradius 19.6874
lwrist 4.0103
lhand -24.9334 -4.09464
lfingers 7.12502
lthumb 1.57594 25.8793
rfemur -10.6871 -3.78838 20.1082
rtibia 19.7057
rfoot -14.0387 -1.53075
rtoes 7.54834
lfemur -9.62543 8.52312 -18.3519
ltibia 16.9019
lfoot -11.8252 1.66578
ltoes -8.1872
67
root 0.498454 17.5537 -13.771 5.72042 -1.09424 -1.66011
lowerback -1.4694 -0.346286 0.525001
upperback 3.94791 -0.5533 1.59839
thorax 4.90974 -0.289468 1.3266
lowerneck -16.0913 0.808771 -2.17709
upperneck 26.8034 1.81185 -0.112799
head 11.3581 0.578803 0.5893
rclavicle -1.3418e-015 6.55989e-015
rhumerus -18.8096 -10.7168 -84.7149
rradius 24.1056
rwrist 32.4497
rhand -19.4113 -26.2141
rfingers 7.12502
rthumb 6.90813 -56.0813
lclavicle -1.3418e-015 6.55989e-015
lhumerus -17.4988 -7.49617 90.9826
lradius 19.6774
lwrist 3.9962
lhand -24.9133 -4.04428
lfingers 7.12502
lthumb 1.59533 25.9295
rfemur -10.6863 -3.7907 20.1067
rtibia 19.7134
rfoot -14.0428 -1.52433
rtoes 7.54903
lfemur -9.62078 8.5167 -18.3522
ltibia 16.9047
lfoot -11.825 1.67789
ltoes -8.21958
68
root 0.498761 17.5534 -13.7712 5.71519 -1.09949 -1.66166
lowerback -1.4747 -0.348824 0.517108
upperback 3.94772 -0.556538 1.60016
thorax 4.91273 -0.291425 1.33265
lowerneck -16.0915 0.817017 -2.16648
upperneck 26.8077 1.82446 -0.126127
head 11.3599 0.583806 0.584441
rclavicle 2.73329e-015 -1.88845e-014
rhumerus -18.8079 -10.684 -84.7185
rradius 24.1145
rwrist 32.4305
rhand -19.4129 -26.2208
rfingers 7.12502
rthumb 6.90658 -56.0881
lclavicle 2.73329e-015 -1.88845e-014
lhumerus -17.482 -7.48754 90.9441
lradius 19.6666
lwrist 3.97752
lhand -24.914 -4.03033
lfingers 7.12502
lthumb 1.59466 25.9435
rfemur -10.6854 -3.7894 20.1067
rtibia 19.7201
rfoot -14.0457 -1.5203
rtoes 7.55778
lfemur -9.61592 8.5082 -18.3507
ltibia 16.9074
lfoot -11.8244 1.69152
ltoes -8.23964
69
root 0.499045 17.5531 -13.7716 5.70964 -1.10518 -1.6651
lowerback -1.47958 -0.351684 0.509535
upperback 3.95045 -0.56033 1.60342
thorax 4.91857 -0.293689 1.34004
lowerneck -16.0974 0.824643 -2.15953
upperneck 26.8105 1.83741 -0.13954
head 11.3622 0.588578 0.580254
rclavicle -3.47873e-015 -4.17448e-015
rhumerus -18.8004 -10.6511 -84.7228
rradius 24.1234
rwrist 32.4107
rhand -19.414 -26.2313
rfingers 7.12502
rthumb 6.9055 -56.0986
lclavicle -3.47873e-015 -4.17448e-015
lhumerus -17.4625 -7.47323 90.9068
lradius 19.6586
lwrist 3.95355
lhand -24.9267 -4.04507
lfingers 7.12502
lthumb 1.58237 25.9288
rfemur -10.6835 -3.78421 20.1086
rtibia 19.7247
rfoot -14.0457 -1.51701
rtoes 7.58465
lfemur -9.61128 8.49893 -18.347
ltibia 16.911
lfoot -11.8245 1.70592
ltoes -8.2457
